<?xml version="1.0" encoding="UTF-8"?>
<svg id="Ebene_2" data-name="Ebene 2" xmlns="http://www.w3.org/2000/svg" viewBox="0 0 133.32 34.81">
  <defs>
    <style>
      .cls-1 {
        fill: #dd2234;
      }

      .cls-1, .cls-2 {
        fill-rule: evenodd;
      }
    </style>
  </defs>
  <g id="Ebene_1-2" data-name="Ebene 1">
    <g>
      <path class="cls-1" d="m5.73,6.81c-1.92,0-3.45-1.51-3.45-3.4S3.81,0,5.73,0c1.82,0,3.35,1.51,3.35,3.4s-1.53,3.4-3.35,3.4"/>
      <g>
        <path class="cls-2" d="m8.02,9.28c.02-.35-.15-.52-.51-.52H.5c-.36,0-.53.17-.5.52v2.38c-.02.38.14.55.5.52h2.84v14.29c-.02.35.15.52.52.52h3.65c.36,0,.53-.17.51-.51V9.28h0Z"/>
        <path class="cls-2" d="m18.48,13.23c.27-.29.63-.6,1.09-.92.47-.3,1.08-.46,1.85-.49,2.06.05,3.05,2.02,2.96,5.92,0,2.17-.2,3.74-.61,4.72-.49.99-1.37,1.48-2.62,1.48-.68,0-1.22-.09-1.62-.25-.39-.14-.75-.28-1.06-.45v-10.01h.01Zm0,13.44c.38.2.86.39,1.44.58.56.23,1.36.35,2.39.37,4.58-.07,6.83-3.43,6.74-10.08-.05-6.25-2.17-9.39-6.35-9.41-1.19.02-2.17.23-2.94.61-.75.42-1.34.85-1.76,1.3-.17-.64-.34-1.12-.52-1.45-.16-.31-.37-.47-.61-.47-.16,0-.34.04-.56.11l-2.8.92c-.26.07-.39.2-.39.4,0,.28.12.68.35,1.22.2.54.32,2.05.34,4.55v18.73c0,.53.08.78.25.76.24-.03.45-.06.63-.1l3.08-.62c.21-.03.4-.09.56-.18.1-.07.15-.24.15-.49v-6.75h0Z"/>
        <path class="cls-2" d="m37.95,14.16c.27-.29.67-.65,1.18-1.1.51-.42,1.04-.64,1.6-.66.44,0,.8.06,1.09.18.3.16.5.23.62.23.16-.02.26-.14.3-.34l1.13-3.11c.05-.1.07-.21.07-.36-.02-.28-.23-.49-.62-.63-.4-.14-.91-.21-1.5-.21s-1.16.1-1.65.29c-.48.22-.91.49-1.27.81-.37.3-.68.62-.93.95-.28.35-.51.63-.67.85-.11-.67-.3-1.31-.55-1.95-.15-.3-.28-.55-.42-.74-.14-.14-.27-.21-.39-.21-.15.02-.3.07-.49.15l-2.77,1.13c-.23.07-.34.18-.34.34.03.31.2.83.52,1.55.26.73.41,2.07.43,4.02v11.14c-.03.35.15.52.51.52h3.62c.36,0,.53-.17.5-.51v-12.34h.03Z"/>
        <path class="cls-2" d="m52.56,23.95c-1.25-.02-2.07-.61-2.46-1.77-.4-1.11-.58-2.53-.56-4.29-.03-1.77.17-3.22.59-4.35.42-1.12,1.22-1.69,2.42-1.72,1.25.02,2.08.6,2.51,1.72.34,1.13.5,2.58.5,4.35s-.16,3.22-.5,4.33c-.42,1.13-1.25,1.7-2.5,1.73h0Zm7.96-6.07c-.03-3.03-.73-5.41-2.1-7.13-1.42-1.72-3.39-2.59-5.88-2.61-2.46.02-4.39.9-5.79,2.61-1.44,1.72-2.17,4.09-2.17,7.12s.73,5.34,2.17,7.08c1.4,1.76,3.33,2.65,5.79,2.67,2.52-.02,4.49-.91,5.88-2.66,1.38-1.74,2.08-4.1,2.1-7.08h0Z"/>
      </g>
      <g>
        <path class="cls-1" d="m69.59,13.23c.26-.29.63-.6,1.09-.92.47-.3,1.08-.46,1.85-.49,2.06.05,3.05,2.02,2.96,5.92,0,2.17-.21,3.74-.61,4.72-.49.99-1.36,1.48-2.63,1.48-.68,0-1.22-.09-1.61-.25-.39-.14-.75-.28-1.06-.45v-10.01h.01Zm0,13.44c.38.2.86.39,1.44.58.56.23,1.36.35,2.39.37,4.58-.07,6.84-3.43,6.75-10.08-.05-6.25-2.17-9.39-6.35-9.41-1.2.02-2.17.23-2.94.61-.75.42-1.34.85-1.76,1.3-.17-.64-.34-1.12-.53-1.45-.16-.31-.37-.47-.6-.47-.16,0-.34.04-.56.11l-2.8.92c-.26.07-.39.2-.39.4,0,.28.12.68.35,1.22.2.54.32,2.05.34,4.55v18.73c0,.53.08.78.25.76.24-.03.45-.06.63-.1l3.09-.62c.21-.03.4-.09.55-.18.09-.07.15-.24.15-.49v-6.75h0Z"/>
        <path class="cls-1" d="m91.66,23.27c-.05-.14-.15-.22-.31-.22-.09,0-.25.05-.46.15-.28.12-.59.18-.95.18-.49,0-.78-.22-.89-.66-.12-.41-.17-.93-.15-1.56V1.02c0-.31-.01-.5-.04-.6-.07-.11-.17-.16-.32-.16-.15.05-.33.08-.51.1l-3.09.62c-.21.02-.37.08-.49.16-.15.05-.21.22-.21.5v18.85c0,.85.02,1.68.07,2.5.08.87.25,1.63.52,2.29.29.68.74,1.24,1.36,1.66s1.47.65,2.57.67c.93-.02,1.77-.13,2.53-.34.37-.09.66-.22.88-.36.2-.12.3-.23.3-.35,0-.07-.02-.17-.07-.29l-.74-3h0Z"/>
        <path class="cls-1" d="m108.68,26.34c.19-.07.3-.18.32-.32-.03-.33-.17-.78-.44-1.37-.33-.59-.5-1.74-.52-3.45v-7.12c.1-3.94-2.01-5.91-6.3-5.94-1.5.02-2.92.19-4.27.5-.63.15-1.15.35-1.54.56-.17.1-.31.2-.43.33-.16.1-.23.22-.23.34,0,.15.03.29.11.44l.73,2.25c.05.23.18.36.38.38.28-.02.86-.23,1.72-.6.83-.33,1.78-.5,2.83-.52,1.15,0,1.88.23,2.21.7.26.49.39,1.18.39,2.04v1.14c-.73,0-1.62.02-2.67.07-1.05.08-2.11.32-3.16.7-1.06.38-1.93.98-2.62,1.82-.75.86-1.13,2.07-1.13,3.64.07,3.7,1.91,5.6,5.51,5.69,1.37-.02,2.44-.31,3.19-.85.37-.23.68-.47.95-.74.25-.23.46-.44.63-.63.11.47.29.95.52,1.44.19.49.36.75.53.77.18-.02.34-.07.49-.14l2.8-1.13h0Zm-5.03-3.53c-.21.24-.54.52-.98.85-.47.34-1.06.52-1.76.54-.72,0-1.3-.25-1.74-.74-.47-.47-.7-1.06-.7-1.77,0-.81.25-1.42.73-1.85.42-.44.93-.73,1.55-.85.62-.18,1.21-.28,1.77-.31.54.02.92.04,1.13.04v4.09h0Z"/>
        <path class="cls-1" d="m127.64,13.52c0-1.14-.14-2.07-.4-2.81-.3-.68-.69-1.21-1.19-1.58-.47-.4-.98-.66-1.55-.81-.57-.12-1.12-.18-1.66-.18-1.42.02-2.58.32-3.45.88-.44.27-.84.53-1.18.81-.38.29-.7.57-1,.85-.18-.89-.36-1.54-.56-1.96-.17-.39-.37-.58-.63-.58-.14,0-.32.04-.54.1l-2.81.92c-.28.07-.42.2-.42.39,0,.28.13.69.38,1.23.2.54.31,2.05.33,4.54v11.14c-.03.35.15.52.52.52h3.65c.36,0,.53-.17.51-.52v-12.95c.27-.28.7-.6,1.26-.97.56-.34,1.23-.52,2-.54.46,0,.84.09,1.14.25.3.19.51.44.63.74.19.66.28,1.37.28,2.12v11.37c-.02.35.15.52.52.52h3.65c.36,0,.53-.17.51-.51v-12.97h.01Z"/>
      </g>
      <path class="cls-2" d="m129.31,2.18h.7c.43,0,.61.17.61.44,0,.35-.26.52-.52.52h-.79v-.96m-.69,2.97h.7v-1.49h.79l.52,1.48h.78l-.7-1.57c.26-.09.61-.26.61-.87,0-1.05-.78-1.13-1.48-1.13h-1.22v3.58Zm-1.62-1.79c0-1.57,1.31-2.88,2.88-2.88,1.66,0,2.96,1.31,2.96,2.88,0,1.66-1.31,2.96-2.96,2.96s-2.88-1.3-2.88-2.96Zm2.92,3.44c1.92,0,3.4-1.48,3.4-3.4s-1.48-3.4-3.4-3.4-3.4,1.57-3.4,3.4c0,1.92,1.57,3.4,3.4,3.4Z"/>
    </g>
  </g>
</svg>